<?xml version="1.0" standalone="no"?>
<!DOCTYPE svg PUBLIC "-//W3C//DTD SVG 20010904//EN"
 "http://www.w3.org/TR/2001/REC-SVG-20010904/DTD/svg10.dtd">
<svg version="1.0" xmlns="http://www.w3.org/2000/svg"
 width="1024.000000pt" height="1024.000000pt" viewBox="0 0 1024.000000 1024.000000"
 preserveAspectRatio="xMidYMid meet">
<metadata>
Created by potrace 1.11, written by Peter Selinger 2001-2013
</metadata>
<g transform="translate(0.000000,1024.000000) scale(0.100000,-0.100000)"
fill="#000000" stroke="none">
<path d="M0 5120 l0 -5120 5120 0 5120 0 0 5120 0 5120 -5120 0 -5120 0 0
-5120z m1290 5030 c-20 -13 -50 -13 -50 0 0 6 15 10 33 10 24 0 28 -3 17 -10z
m6990 -14 c166 -9 454 -73 605 -135 11 -5 31 -13 45 -19 14 -5 56 -24 93 -41
37 -17 74 -31 82 -31 8 0 15 -4 15 -8 0 -5 19 -18 43 -31 189 -99 415 -285
577 -476 26 -31 160 -230 160 -239 0 -2 15 -30 33 -63 156 -276 256 -769 219
-1082 -9 -72 -8 -87 5 -100 14 -14 14 -16 -3 -24 -15 -6 -24 -30 -38 -105 -33
-180 -45 -237 -61 -292 -23 -77 -47 -143 -57 -154 -4 -6 -8 -17 -8 -25 0 -9
-35 -104 -79 -211 -209 -520 -239 -629 -246 -915 -3 -138 8 -248 36 -355 27
-102 72 -230 81 -230 5 0 8 -8 8 -18 0 -25 108 -200 167 -269 26 -32 82 -90
123 -130 l74 -71 -73 -68 c-74 -68 -172 -189 -228 -279 -34 -55 -83 -154 -83
-167 0 -5 -10 -30 -22 -56 -30 -66 -66 -204 -75 -287 -10 -88 -10 -275 0 -379
12 -140 100 -431 184 -616 14 -30 32 -73 39 -95 8 -22 18 -49 23 -60 88 -201
181 -497 181 -580 0 -16 6 -51 14 -76 8 -25 22 -106 31 -179 27 -211 16 -394
-39 -665 -18 -87 -91 -316 -116 -360 -9 -16 -26 -56 -38 -87 -12 -31 -44 -89
-72 -128 -27 -38 -50 -81 -50 -94 0 -16 -7 -27 -20 -31 -11 -3 -29 -20 -41
-37 -12 -16 -44 -55 -70 -86 -27 -30 -49 -60 -49 -67 0 -6 -11 -17 -24 -24
-13 -7 -30 -24 -37 -38 -8 -14 -24 -29 -36 -34 -15 -6 -21 -14 -16 -24 4 -11
1 -16 -8 -15 -27 4 -36 -1 -100 -52 -193 -155 -456 -286 -729 -365 -193 -55
-330 -75 -527 -77 -89 0 -165 -4 -169 -9 -11 -10 -66 -9 -60 2 3 5 -6 12 -22
15 -24 6 -80 20 -227 58 -22 6 -53 15 -70 19 -61 18 -244 82 -365 129 -434
169 -731 242 -1038 257 -211 10 -454 -36 -637 -121 -27 -13 -57 -27 -65 -30
-56 -22 -216 -142 -303 -227 l-89 -85 -61 64 c-73 76 -185 162 -282 218 -64
36 -88 48 -165 82 -179 81 -477 120 -693 92 -144 -18 -341 -53 -387 -69 -26
-9 -64 -20 -140 -41 -66 -18 -199 -63 -265 -90 -34 -13 -98 -37 -155 -58 -30
-11 -93 -35 -140 -52 -120 -46 -140 -52 -305 -95 -168 -43 -254 -56 -400 -60
-305 -8 -616 64 -935 217 -391 188 -674 456 -873 828 -85 158 -141 322 -182
530 -60 297 -58 469 5 835 34 195 130 492 230 710 37 81 106 259 127 330 9 28
24 77 34 110 87 278 70 682 -38 925 -36 82 -95 194 -125 238 -51 76 -151 193
-213 249 l-57 52 85 84 c113 112 230 273 273 377 4 8 17 38 29 65 42 95 64
176 91 325 25 144 3 451 -44 620 -10 34 -58 175 -102 295 -20 55 -28 75 -64
160 -7 17 -18 41 -23 55 -6 14 -20 48 -31 75 -51 121 -82 206 -106 287 -15 48
-33 93 -41 101 -8 8 -10 18 -5 23 8 8 -3 85 -48 319 -24 127 -23 422 2 565 51
294 127 516 244 708 32 54 41 77 33 85 -17 17 -13 27 13 27 15 0 30 10 42 28
30 47 158 194 220 254 81 77 186 162 269 216 73 48 253 152 262 152 4 0 35 14
70 30 34 17 68 30 73 30 6 0 18 4 28 9 43 24 235 79 392 113 91 19 134 22 320
22 188 0 228 -3 315 -23 55 -13 116 -26 135 -30 42 -9 332 -106 375 -126 17
-7 44 -17 60 -20 17 -4 57 -19 90 -32 33 -14 69 -29 80 -33 11 -4 38 -15 60
-23 103 -40 354 -113 440 -128 28 -5 73 -14 100 -19 28 -6 104 -15 170 -20 66
-5 134 -11 150 -14 36 -4 280 19 347 33 221 47 472 184 634 346 l85 86 67 -69
c113 -116 268 -223 414 -286 303 -129 654 -140 1098 -34 86 20 419 128 476
153 17 8 82 33 145 55 63 23 123 45 134 50 27 12 238 75 295 88 25 6 68 16 95
23 61 15 261 37 295 33 14 -2 72 -5 130 -8z m1085 -126 c3 -5 -1 -10 -9 -10
-9 0 -16 5 -16 10 0 6 4 10 9 10 6 0 13 -4 16 -10z m-125 -45 c0 -8 -4 -15
-10 -15 -5 0 -10 7 -10 15 0 8 5 15 10 15 6 0 10 -7 10 -15z m-3083 -67 c-3
-8 -6 -5 -6 6 -1 11 2 17 5 13 3 -3 4 -12 1 -19z m3893 -2768 c0 -5 -7 -10
-16 -10 -8 0 -12 5 -9 10 3 6 10 10 16 10 5 0 9 -4 9 -10z m-133 -866 c-3 -3
-12 -4 -19 -1 -8 3 -5 6 6 6 11 1 17 -2 13 -5z m283 -1654 c0 -5 -5 -10 -11
-10 -5 0 -7 5 -4 10 3 6 8 10 11 10 2 0 4 -4 4 -10z m-9820 -240 c0 -5 -2 -10
-4 -10 -3 0 -8 5 -11 10 -3 6 -1 10 4 10 6 0 11 -4 11 -10z m9497 -1006 c-3
-3 -12 -4 -19 -1 -8 3 -5 6 6 6 11 1 17 -2 13 -5z m-9835 -1696 c-9 -9 -15 -9
-24 0 -9 9 -7 12 12 12 19 0 21 -3 12 -12z m138 -498 c0 -5 -17 -10 -37 -9
-31 0 -34 2 -18 9 28 12 55 12 55 0z m5540 -760 c0 -5 -4 -10 -10 -10 -5 0
-10 5 -10 10 0 6 5 10 10 10 6 0 10 -4 10 -10z m-900 -170 c0 -5 -5 -10 -11
-10 -5 0 -7 5 -4 10 3 6 8 10 11 10 2 0 4 -4 4 -10z m5240 -28 c0 -12 -23 -32
-37 -32 -9 0 -8 6 4 20 18 21 33 26 33 12z m-5413 -144 c-3 -7 -5 -2 -5 12 0
14 2 19 5 13 2 -7 2 -19 0 -25z"/>
<path d="M1954 9975 c-172 -23 -422 -87 -496 -126 -10 -5 -22 -9 -28 -9 -11 0
-232 -107 -296 -142 -47 -27 -142 -88 -164 -105 -156 -121 -255 -217 -334
-323 -40 -54 -166 -255 -166 -265 0 -3 -16 -40 -36 -82 -41 -87 -117 -319
-133 -403 -5 -30 -16 -84 -23 -120 -24 -122 -12 -463 19 -550 3 -8 8 -33 10
-55 11 -103 106 -432 133 -459 5 -5 10 -20 10 -33 0 -13 5 -23 10 -23 6 0 10
-9 10 -20 0 -11 5 -28 10 -38 16 -28 79 -180 117 -282 19 -52 38 -104 43 -115
18 -43 60 -184 80 -270 41 -175 41 -564 1 -765 -20 -96 -47 -190 -59 -202 -6
-6 -12 -17 -12 -23 0 -49 -151 -285 -259 -405 -22 -25 -41 -48 -41 -51 0 -3
14 -18 31 -35 56 -52 166 -207 217 -304 56 -105 102 -234 128 -355 23 -105 27
-581 6 -690 -15 -74 -76 -296 -92 -330 -5 -11 -30 -74 -55 -139 -25 -66 -49
-125 -53 -130 -19 -26 -162 -419 -186 -511 -29 -114 -84 -424 -88 -502 -1 -23
4 -48 11 -56 9 -11 9 -17 0 -22 -12 -8 -5 -142 11 -220 5 -22 14 -67 20 -100
67 -350 257 -709 495 -938 57 -55 213 -175 265 -203 19 -10 42 -24 50 -31 51
-40 291 -150 425 -195 33 -10 69 -23 80 -27 80 -33 359 -81 464 -81 155 0 391
47 556 110 11 4 52 17 90 30 39 12 84 28 100 35 28 11 141 53 340 126 321 116
603 168 920 170 200 1 267 -5 390 -33 225 -50 441 -158 598 -299 l58 -52 32
29 c161 148 332 242 557 308 222 64 630 63 955 -4 160 -32 305 -77 585 -178
30 -11 80 -23 112 -27 50 -6 57 -5 61 11 3 11 5 3 6 -17 1 -41 -18 -31 181
-99 201 -69 408 -110 553 -110 109 0 288 29 450 74 176 48 447 172 600 274 90
60 261 197 294 235 102 120 184 236 242 342 50 91 122 256 123 279 0 12 10 41
20 66 41 92 81 289 102 495 5 50 -21 271 -35 296 -5 11 -7 24 -4 30 4 5 2 31
-3 57 -6 26 -16 76 -22 112 -19 104 -70 273 -114 373 -9 21 -16 42 -16 47 0 6
-9 32 -21 58 -12 26 -26 58 -31 72 -6 14 -14 33 -19 42 -5 10 -9 22 -9 28 0 5
-11 33 -24 62 -13 29 -41 98 -61 153 -21 55 -41 109 -45 120 -58 146 -82 289
-88 520 -5 257 7 405 47 541 30 100 103 270 139 323 11 14 32 51 48 81 16 30
55 79 87 109 82 77 85 85 45 125 -106 106 -218 278 -279 431 -24 58 -49 154
-69 260 -13 66 -29 127 -37 136 -17 20 -17 39 1 39 11 0 15 43 19 218 3 119
11 237 17 262 5 25 12 59 15 75 12 78 119 379 210 590 7 17 18 46 25 65 6 19
18 46 25 60 41 81 118 338 145 485 5 28 14 75 20 105 18 89 33 259 31 339 -3
96 -35 286 -51 306 -7 8 -10 21 -7 28 7 19 -38 184 -74 272 -158 388 -367 641
-695 842 -72 45 -284 153 -299 153 -3 0 -24 9 -48 19 -77 35 -187 71 -284 92
-106 23 -146 30 -258 45 -99 13 -136 14 -210 4 -91 -12 -197 -31 -270 -51 -22
-5 -56 -14 -75 -19 -51 -13 -345 -117 -425 -150 -11 -5 -54 -20 -95 -35 -41
-15 -84 -30 -95 -35 -31 -12 -133 -46 -200 -65 -33 -9 -71 -20 -85 -25 -14 -5
-50 -14 -80 -20 -30 -6 -82 -17 -115 -25 -129 -30 -244 -39 -485 -38 -214 1
-257 4 -340 23 -52 12 -107 25 -123 27 -15 3 -30 9 -33 14 -3 5 -12 9 -21 9
-39 0 -256 109 -337 169 -39 29 -58 38 -61 29 -3 -7 -6 -85 -7 -173 l-3 -160
-95 0 -95 0 -5 171 -5 171 -65 -43 c-55 -38 -226 -127 -295 -155 -43 -17 -194
-58 -260 -70 -95 -17 -513 -17 -625 0 -80 13 -232 42 -310 61 -76 18 -151 41
-280 85 -74 26 -151 51 -170 57 -19 6 -40 14 -45 18 -6 5 -33 16 -60 25 -28 9
-59 20 -70 25 -83 35 -327 117 -393 131 -26 5 -65 14 -87 19 -69 17 -238 40
-280 39 -22 -1 -81 -7 -131 -14z m496 -500 c0 -8 -9 -15 -20 -15 -17 0 -19 2
-8 15 17 19 28 19 28 0z m577 -111 c-3 -3 -12 -4 -19 -1 -8 3 -5 6 6 6 11 1
17 -2 13 -5z m93 -234 c0 -5 -7 -10 -15 -10 -8 0 -15 5 -15 10 0 6 7 10 15 10
8 0 15 -4 15 -10z m246 -162 c74 -73 134 -137 134 -143 0 -6 -29 -40 -65 -75
l-65 -65 -135 135 c-74 74 -135 139 -135 145 0 9 120 135 129 135 2 0 64 -60
137 -132z m3738 63 l69 -69 -136 -136 c-75 -75 -140 -136 -144 -136 -5 0 -38
29 -73 65 l-65 65 140 140 c77 77 140 140 140 140 0 0 31 -31 69 -69z m-6219
-61 c3 -5 -1 -10 -10 -10 -9 0 -13 5 -10 10 3 6 8 10 10 10 2 0 7 -4 10 -10z
m822 -28 c-15 -15 -27 -33 -27 -40 0 -7 -5 -12 -10 -12 -17 0 -7 33 18 58 33
32 51 27 19 -6z m1333 3 c0 -8 -9 -15 -19 -15 -10 0 -21 7 -25 15 -4 11 1 15
19 15 16 0 25 -6 25 -15z m2390 -19 c103 -17 231 -49 324 -82 38 -13 79 -24
92 -24 12 0 27 -6 34 -14 6 -8 46 -32 88 -52 190 -92 406 -253 545 -405 70
-78 207 -252 207 -263 0 -3 15 -29 34 -58 71 -112 140 -270 192 -443 67 -221
90 -513 59 -757 -14 -115 -40 -247 -58 -298 -80 -228 -119 -315 -201 -449
-133 -219 -285 -383 -513 -554 -212 -160 -321 -317 -379 -545 -23 -89 -24
-112 -24 -386 0 -401 -9 -445 -100 -537 -83 -84 -86 -84 -605 -84 l-450 0 -55
26 c-73 35 -125 87 -155 154 -23 54 -24 62 -29 398 -5 403 -12 449 -84 607
-62 134 -158 244 -322 367 -231 174 -391 350 -524 576 -113 192 -201 427 -237
637 -19 106 -37 374 -27 393 5 10 8 49 7 86 -1 37 1 73 4 78 4 6 11 42 17 79
30 210 147 512 275 709 83 129 215 282 336 390 73 66 81 72 192 149 261 179
592 295 912 320 92 7 359 -4 445 -18z m650 -6 c0 -5 -4 -10 -10 -10 -5 0 -10
5 -10 10 0 6 5 10 10 10 6 0 10 -4 10 -10z m-5220 -50 c0 -5 -7 -10 -15 -10
-8 0 -15 5 -15 10 0 6 7 10 15 10 8 0 15 -4 15 -10z m2040 -145 c0 -8 -4 -15
-10 -15 -5 0 -10 7 -10 15 0 8 5 15 10 15 6 0 10 -7 10 -15z m-1280 -35 c0 -5
-4 -10 -9 -10 -6 0 -13 5 -16 10 -3 6 1 10 9 10 9 0 16 -4 16 -10z m-47 -27
c-13 -2 -35 -2 -50 0 -16 2 -5 4 22 4 28 0 40 -2 28 -4z m-593 -13 c0 -5 -4
-10 -10 -10 -5 0 -10 5 -10 10 0 6 5 10 10 10 6 0 10 -4 10 -10z m1420 0 c0
-5 -4 -10 -10 -10 -5 0 -10 5 -10 10 0 6 5 10 10 10 6 0 10 -4 10 -10z m-980
-85 c0 -9 -6 -12 -15 -9 -8 4 -15 10 -15 15 0 5 7 9 15 9 8 0 15 -7 15 -15z
m1875 -25 c3 -5 1 -10 -4 -10 -6 0 -11 5 -11 10 0 6 2 10 4 10 3 0 8 -4 11
-10z m285 -15 c0 -15 -6 -25 -14 -25 -8 0 -17 -6 -19 -12 -3 -7 -6 -1 -6 14
-1 16 6 31 17 37 23 14 22 14 22 -14z m-74 -110 c-32 -28 -41 -31 -30 -12 16
25 29 36 44 37 9 0 4 -9 -14 -25z m6184 -285 c0 -5 -2 -10 -4 -10 -3 0 -8 5
-11 10 -3 6 -1 10 4 10 6 0 11 -4 11 -10z m-2495 -24 c18 -13 18 -15 2 -30 -9
-10 -17 -14 -17 -9 0 5 5 14 12 21 9 9 7 12 -10 12 -12 0 -22 5 -22 10 0 14
13 12 35 -4z m-25 -56 c0 -5 -9 -10 -21 -10 -11 0 -17 5 -14 10 3 6 13 10 21
10 8 0 14 -4 14 -10z m487 -216 c-3 -3 -12 -4 -19 -1 -8 3 -5 6 6 6 11 1 17
-2 13 -5z m2203 -164 c0 -5 -4 -10 -10 -10 -5 0 -10 5 -10 10 0 6 5 10 10 10
6 0 10 -4 10 -10z m-46 -45 c-16 -25 -34 -33 -34 -16 0 7 37 38 48 40 1 1 -5
-10 -14 -24z m-842 -27 c-9 -9 -12 -7 -12 12 0 19 3 21 12 12 9 -9 9 -15 0
-24z m795 -20 c-3 -8 -6 -5 -6 6 -1 11 2 17 5 13 3 -3 4 -12 1 -19z m-7914
-15 c-7 -2 -19 -2 -25 0 -7 3 -2 5 12 5 14 0 19 -2 13 -5z m-1073 -67 c0 -3
-4 -8 -10 -11 -5 -3 -10 -1 -10 4 0 6 5 11 10 11 6 0 10 -2 10 -4z m8830 -46
c-19 -13 -30 -13 -30 0 0 6 10 10 23 10 18 0 19 -2 7 -10z m-75 -10 c3 -5 1
-10 -4 -10 -6 0 -11 5 -11 10 0 6 2 10 4 10 3 0 8 -4 11 -10z m-2395 -70 c0
-5 -4 -10 -10 -10 -5 0 -10 5 -10 10 0 6 5 10 10 10 6 0 10 -4 10 -10z m-96
-105 c3 -8 1 -15 -4 -15 -6 0 -10 7 -10 15 0 8 2 15 4 15 2 0 6 -7 10 -15z
m699 -105 l177 0 0 -100 0 -100 -197 2 -198 3 -1 30 c-3 65 -6 151 -5 164 1 9
8 11 24 7 12 -3 102 -6 200 -6z m-5005 -102 l3 -98 -201 0 -200 0 0 93 c0 52
3 97 7 101 4 3 93 5 197 4 l191 -3 3 -97z m5819 -154 c-3 -3 -12 -4 -19 -1 -8
3 -5 6 6 6 11 1 17 -2 13 -5z m-5900 -96 c-3 -8 -6 -5 -6 6 -1 11 2 17 5 13 3
-3 4 -12 1 -19z m-837 -153 c0 -8 -4 -15 -10 -15 -5 0 -7 7 -4 15 4 8 8 15 10
15 2 0 4 -7 4 -15z m5217 -11 c-3 -3 -12 -4 -19 -1 -8 3 -5 6 6 6 11 1 17 -2
13 -5z m2378 -74 c3 -5 1 -10 -4 -10 -6 0 -11 5 -11 10 0 6 2 10 4 10 3 0 8
-4 11 -10z m-2240 -440 c3 -5 1 -10 -4 -10 -6 0 -11 5 -11 10 0 6 2 10 4 10 3
0 8 -4 11 -10z m198 -37 c-6 -14 -33 -26 -33 -13 0 5 5 12 10 15 6 3 10 16 11
28 0 21 1 21 8 2 5 -11 6 -25 4 -32z m-5173 -223 c0 -5 -4 -10 -10 -10 -5 0
-10 5 -10 10 0 6 5 10 10 10 6 0 10 -4 10 -10z m5160 -60 c0 -5 -2 -10 -4 -10
-3 0 -8 5 -11 10 -3 6 -1 10 4 10 6 0 11 -4 11 -10z m532 -72 c-7 -7 -12 -8
-12 -2 0 14 12 26 19 19 2 -3 -1 -11 -7 -17z m128 -28 c0 -5 -5 -10 -11 -10
-5 0 -7 5 -4 10 3 6 8 10 11 10 2 0 4 -4 4 -10z m-5053 -52 c-3 -8 -6 -5 -6 6
-1 11 2 17 5 13 3 -3 4 -12 1 -19z m470 -290 c35 -34 63 -67 63 -72 0 -15
-256 -266 -272 -266 -16 0 -128 110 -128 127 0 10 260 273 270 273 2 0 33 -28
67 -62z m3602 -73 l134 -136 -63 -64 c-36 -36 -69 -65 -75 -65 -6 0 -71 61
-145 135 l-135 135 65 65 c35 36 69 65 75 65 6 0 71 -61 144 -135z m2116 -65
c-3 -5 -10 -10 -16 -10 -5 0 -9 5 -9 10 0 6 7 10 16 10 8 0 12 -4 9 -10z
m-7378 -97 c-3 -10 -5 -2 -5 17 0 19 2 27 5 18 2 -10 2 -26 0 -35z m1103 -23
c0 -5 -4 -10 -9 -10 -6 0 -13 5 -16 10 -3 6 1 10 9 10 9 0 16 -4 16 -10z
m1070 -35 c0 -8 -7 -15 -15 -15 -8 0 -15 7 -15 15 0 8 7 15 15 15 8 0 15 -7
15 -15z m4187 9 c-3 -3 -12 -4 -19 -1 -8 3 -5 6 6 6 11 1 17 -2 13 -5z m-110
-190 c-3 -3 -12 -4 -19 -1 -8 3 -5 6 6 6 11 1 17 -2 13 -5z m-6950 -236 c-3
-8 -6 -5 -6 6 -1 11 2 17 5 13 3 -3 4 -12 1 -19z m1863 -249 c0 -11 -4 -18
-10 -14 -5 3 -7 12 -3 20 7 21 13 19 13 -6z m-20 -59 c0 -5 -4 -10 -10 -10 -5
0 -10 5 -10 10 0 6 5 10 10 10 6 0 10 -4 10 -10z m5010 -120 c0 -5 -8 -10 -17
-10 -15 0 -16 2 -3 10 19 12 20 12 20 0z m-10 -34 c0 -3 -4 -8 -10 -11 -5 -3
-10 -1 -10 4 0 6 5 11 10 11 6 0 10 -2 10 -4z m-3700 -142 c0 -8 -5 -12 -10
-9 -6 4 -8 11 -5 16 9 14 15 11 15 -7z m-1840 -24 c0 -5 -5 -10 -11 -10 -5 0
-7 5 -4 10 3 6 8 10 11 10 2 0 4 -4 4 -10z m1820 0 c0 -5 -4 -10 -10 -10 -5 0
-10 5 -10 10 0 6 5 10 10 10 6 0 10 -4 10 -10z m3827 -16 c-3 -3 -12 -4 -19
-1 -8 3 -5 6 6 6 11 1 17 -2 13 -5z m-3947 -44 c0 -5 -2 -10 -4 -10 -3 0 -8 5
-11 10 -3 6 -1 10 4 10 6 0 11 -4 11 -10z m4860 -280 c0 -5 -7 -10 -16 -10 -8
0 -12 5 -9 10 3 6 10 10 16 10 5 0 9 -4 9 -10z m-385 -19 c-3 -6 -11 -8 -17
-5 -6 4 -5 9 3 15 16 10 23 4 14 -10z m-1995 -61 c0 -5 -5 -10 -11 -10 -5 0
-7 5 -4 10 3 6 8 10 11 10 2 0 4 -4 4 -10z m-5133 -66 c-3 -3 -12 -4 -19 -1
-8 3 -5 6 6 6 11 1 17 -2 13 -5z m-392 -54 c-28 -12 -45 -12 -45 0 0 6 15 10
33 9 27 0 29 -2 12 -9z m3129 -211 c57 -26 144 -114 182 -181 l29 -53 0 -365
0 -365 -87 -3 c-50 -2 -88 1 -88 6 0 5 -11 20 -25 34 l-25 25 -2 349 -3 349
-35 3 c-49 3 -83 -17 -97 -58 -8 -24 -12 -139 -12 -373 l-1 -339 -81 5 c-75 4
-83 7 -113 36 l-31 31 2 365 c1 351 2 366 23 407 28 56 38 69 80 100 82 60
192 71 284 27z m1292 -4 c103 -50 204 -192 204 -286 l0 -49 -79 0 c-77 0 -80
1 -115 36 -22 22 -36 45 -35 58 5 50 1 56 -40 56 -28 0 -49 -8 -70 -26 -28
-23 -31 -32 -31 -80 l0 -54 72 0 c67 0 74 -2 105 -32 32 -31 33 -34 33 -115 0
-59 -4 -83 -12 -84 -7 -1 -26 -2 -43 -3 -16 -2 -58 -4 -93 -4 l-63 -2 3 -77
c3 -76 4 -78 30 -81 31 -4 84 21 97 46 5 9 12 36 16 60 l7 42 81 0 82 0 29
-36 c26 -33 28 -41 23 -100 -8 -105 -76 -192 -174 -225 -51 -17 -159 -7 -215
20 -60 29 -149 114 -179 171 -22 42 -24 58 -29 270 -9 325 5 393 92 463 87 70
201 82 304 32z m908 1 c61 -31 99 -64 148 -129 67 -88 69 -102 66 -487 l-3
-345 -80 -1 c-76 -2 -81 0 -112 29 l-33 31 -2 351 -3 350 -38 3 c-87 7 -111
-44 -104 -223 3 -66 5 -124 5 -130 0 -5 -3 -100 -7 -209 l-6 -199 -79 0 c-73
0 -80 2 -106 29 l-29 29 -2 355 c-4 412 -3 417 76 495 87 87 198 106 309 51z
m-1756 -13 l32 -38 0 -161 c0 -175 0 -174 56 -174 36 0 62 16 79 50 12 22 15
66 15 195 l0 165 84 0 84 0 32 -42 31 -43 -3 -175 c-3 -139 -7 -183 -21 -215
-22 -49 -68 -98 -124 -131 l-43 -25 -2 -177 -3 -177 -79 2 c-71 1 -81 4 -107
29 l-29 28 0 162 c0 141 -2 165 -17 176 -50 38 -141 138 -158 173 -17 35 -20
65 -23 228 l-4 187 84 0 83 0 33 -37z m1290 -3 l32 -39 -2 -453 -3 -453 -77 0
c-75 1 -78 2 -113 38 l-36 37 2 455 2 455 82 0 82 0 31 -40z m1162 0 c0 -11
-2 -20 -4 -20 -2 0 -6 9 -9 20 -3 11 -1 20 4 20 5 0 9 -9 9 -20z m-27 -7 c-7
-2 -19 -2 -25 0 -7 3 -2 5 12 5 14 0 19 -2 13 -5z m-3833 -243 c0 -5 -4 -10
-10 -10 -5 0 -10 5 -10 10 0 6 5 10 10 10 6 0 10 -4 10 -10z m5475 0 c3 -5 -1
-10 -9 -10 -8 0 -18 5 -21 10 -3 6 1 10 9 10 8 0 18 -4 21 -10z m-6980 -60 c3
-5 1 -10 -4 -10 -6 0 -11 5 -11 10 0 6 2 10 4 10 3 0 8 -4 11 -10z m1248 -19
c4 -15 11 -18 28 -14 17 4 21 2 14 -5 -5 -6 -22 -14 -37 -17 -26 -7 -28 -5
-28 24 0 34 15 42 23 12z m6081 -66 c-4 -8 -10 -15 -15 -15 -4 0 -6 7 -3 15 4
8 10 15 15 15 4 0 6 -7 3 -15z m-1504 -35 c0 -5 -4 -10 -10 -10 -5 0 -10 5
-10 10 0 6 5 10 10 10 6 0 10 -4 10 -10z m-1885 -111 c12 -19 -5 -23 -22 -6
-16 16 -16 17 -1 17 9 0 20 -5 23 -11z m-4105 -129 c0 -5 -5 -10 -11 -10 -5 0
-7 5 -4 10 3 6 8 10 11 10 2 0 4 -4 4 -10z m5857 -36 c-3 -3 -12 -4 -19 -1 -8
3 -5 6 6 6 11 1 17 -2 13 -5z m50 0 c-3 -3 -12 -4 -19 -1 -8 3 -5 6 6 6 11 1
17 -2 13 -5z m488 -24 c4 -6 -10 -8 -35 -6 -55 5 -64 16 -12 16 22 0 44 -4 47
-10z m-7405 -35 c0 -8 -4 -15 -10 -15 -5 0 -10 7 -10 15 0 8 5 15 10 15 6 0
10 -7 10 -15z m7800 -31 c0 -8 -4 -12 -10 -9 -5 3 -10 10 -10 16 0 5 5 9 10 9
6 0 10 -7 10 -16z m988 -185 c-21 -14 -28 -11 -28 12 0 15 5 19 15 15 8 -3 16
0 16 7 1 7 3 4 6 -7 3 -10 -1 -22 -9 -27z m-2888 7 c0 -8 -4 -18 -10 -21 -5
-3 -10 3 -10 14 0 12 5 21 10 21 6 0 10 -6 10 -14z m-30 -20 c0 -3 -4 -8 -10
-11 -5 -3 -10 -1 -10 4 0 6 5 11 10 11 6 0 10 -2 10 -4z m2680 -146 c0 -17
-12 -40 -21 -40 -5 0 -9 13 -9 30 0 22 4 28 15 24 8 -4 15 -10 15 -14z m-7415
-10 c3 -5 -1 -10 -9 -10 -9 0 -16 5 -16 10 0 6 4 10 9 10 6 0 13 -4 16 -10z
m7812 -26 c-3 -3 -12 -4 -19 -1 -8 3 -5 6 6 6 11 1 17 -2 13 -5z m-451 -42
c-11 -11 -16 -12 -16 -4 0 18 24 43 29 30 2 -5 -4 -17 -13 -26z m-4135 1 c-8
-15 -10 -15 -11 -2 0 17 10 32 18 25 2 -3 -1 -13 -7 -23z m-2165 -20 c-10 -10
-19 5 -10 18 6 11 8 11 12 0 2 -7 1 -15 -2 -18z m2084 7 c0 -5 -2 -10 -4 -10
-3 0 -8 5 -11 10 -3 6 -1 10 4 10 6 0 11 -4 11 -10z m4410 0 c0 -5 -2 -10 -4
-10 -3 0 -8 5 -11 10 -3 6 -1 10 4 10 6 0 11 -4 11 -10z m-2410 -9 c0 -6 -4
-13 -10 -16 -5 -3 -10 1 -10 9 0 9 5 16 10 16 6 0 10 -4 10 -9z m-3140 -78
c-26 -11 -42 -31 -27 -36 6 -3 0 -6 -15 -6 -31 -1 -33 2 -18 30 7 13 21 19 43
18 18 0 25 -3 17 -6z m-1843 -49 c-3 -3 -12 -4 -19 -1 -8 3 -5 6 6 6 11 1 17
-2 13 -5z m-47 -24 c0 -5 -11 -10 -25 -10 -14 0 -25 5 -25 10 0 6 11 10 25 10
14 0 25 -4 25 -10z m950 0 c0 -5 -2 -10 -4 -10 -3 0 -8 5 -11 10 -3 6 -1 10 4
10 6 0 11 -4 11 -10z m-1813 -52 c-3 -8 -6 -5 -6 6 -1 11 2 17 5 13 3 -3 4
-12 1 -19z m-160 -24 c-3 -3 -12 -4 -19 -1 -8 3 -5 6 6 6 11 1 17 -2 13 -5z
m3373 -114 c0 -5 -6 -10 -14 -10 -8 0 -18 5 -21 10 -3 6 3 10 14 10 12 0 21
-4 21 -10z m-2117 -25 c35 -17 63 -51 69 -81 2 -14 -4 -20 -24 -22 -21 -3 -30
3 -43 28 -15 29 -19 31 -63 28 -40 -3 -49 -7 -60 -30 -16 -34 0 -77 36 -93 13
-6 22 -19 22 -32 0 -50 -83 -15 -116 48 -29 56 -4 117 61 149 48 24 77 25 118
5z m2901 1 c39 -16 66 -51 66 -83 0 -35 -45 -31 -62 5 -11 22 -20 28 -58 30
-50 4 -70 -13 -70 -58 0 -26 32 -70 50 -70 6 0 10 -12 10 -26 0 -24 -3 -26
-32 -20 -50 9 -88 60 -88 116 1 94 90 145 184 106z m1859 0 c61 -25 92 -106
42 -106 -18 0 -28 7 -35 25 -14 37 -57 50 -97 31 -28 -14 -33 -21 -33 -53 0
-37 23 -73 47 -73 8 0 13 -11 13 -29 0 -29 -1 -30 -32 -19 -81 27 -115 96 -80
165 33 64 105 89 175 59z m1397 -1 c32 -17 70 -65 70 -89 0 -30 -53 -20 -72
13 -18 32 -57 43 -96 27 -46 -19 -41 -96 8 -121 55 -28 28 -69 -30 -45 -35 14
-70 66 -70 103 0 15 7 42 17 61 27 57 112 82 173 51z m-6937 -267 c18 -12 35
-26 38 -31 4 -5 22 2 41 16 50 38 116 54 167 39 182 -55 177 -309 -8 -362 -30
-8 -31 -7 -31 21 0 25 6 32 40 45 32 13 42 24 56 61 15 39 16 52 6 92 -17 62
-50 91 -108 91 -37 0 -51 -6 -74 -29 -30 -29 -35 -43 -45 -121 -7 -57 -35
-104 -77 -130 -18 -11 -36 -20 -40 -20 -16 0 -7 59 10 72 61 43 55 167 -10
212 -12 9 -42 16 -66 16 -36 0 -49 -5 -73 -31 -15 -17 -31 -46 -35 -66 -8 -41
9 -106 35 -130 10 -10 21 -30 25 -45 5 -22 3 -28 -10 -28 -27 0 -85 50 -100
86 -18 43 -18 137 0 172 49 94 176 128 259 70z m1704 -2 c17 -11 37 -30 44
-43 16 -30 21 -29 48 8 27 36 92 68 140 69 50 0 120 -39 148 -83 67 -106 22
-240 -95 -281 -37 -13 -44 -13 -48 -1 -11 27 2 48 36 59 49 15 72 63 67 135
-3 46 -9 59 -36 83 -45 40 -111 40 -152 -1 -17 -17 -29 -40 -29 -55 0 -14 -8
-29 -17 -34 -9 -6 -26 -36 -37 -67 -28 -76 -75 -116 -146 -123 -58 -5 -121 12
-146 40 -22 23 -29 23 -67 -6 -90 -67 -208 -43 -261 53 -37 68 -36 132 3 193
25 39 73 78 96 78 11 0 4 -59 -8 -67 -31 -19 -47 -58 -47 -114 0 -49 4 -61 29
-88 25 -27 36 -31 78 -31 76 1 113 41 113 125 0 50 -20 99 -45 108 -9 4 -15
19 -15 37 0 34 2 35 33 18 53 -27 97 -99 97 -158 0 -43 24 -96 52 -114 14 -9
44 -17 67 -18 35 -1 47 4 74 31 29 28 32 37 32 90 0 70 -24 111 -73 126 -23 6
-32 15 -32 30 0 12 2 24 5 27 9 9 57 -5 92 -26z m1216 1 c109 -64 114 -225 11
-303 -27 -21 -50 -29 -95 -32 -80 -6 -136 26 -173 100 -30 61 -31 68 -11 136
18 58 42 86 100 114 51 24 110 19 168 -15z m440 -4 c51 -35 66 -64 78 -151 7
-55 14 -72 39 -94 41 -38 119 -40 155 -4 29 29 42 101 25 150 -13 39 -52 76
-81 76 -15 0 -19 7 -19 31 0 29 1 30 33 24 146 -30 197 -222 85 -321 -61 -55
-169 -59 -234 -9 -30 23 -40 26 -53 16 -68 -49 -76 -52 -136 -48 -33 2 -70 8
-83 12 l-23 8 3 -114 3 -114 240 0 240 0 5 45 c5 42 7 45 35 45 l30 0 3 -72 3
-73 -316 0 -316 0 1 195 c1 175 3 195 18 196 33 2 57 -3 61 -14 12 -34 52 -57
96 -57 57 0 80 12 100 50 20 39 19 119 -2 150 -27 40 -45 49 -92 50 -39 0 -49
-5 -82 -40 -36 -38 -89 -56 -89 -30 0 37 68 110 115 123 46 13 116 0 158 -30z
m947 15 c43 -22 90 -76 90 -104 0 -21 -59 -18 -67 4 -13 37 -54 62 -103 62
-36 0 -51 -5 -67 -22 -28 -31 -43 -62 -43 -88 0 -17 4 -20 18 -15 9 4 47 10
85 12 73 6 140 -12 172 -47 19 -21 11 -45 -34 -93 -37 -41 -73 -57 -128 -57
-95 0 -172 68 -181 160 -14 151 127 254 258 188z m411 11 c19 -7 48 -25 66
-42 l32 -30 23 24 c60 62 156 73 226 26 126 -83 102 -286 -39 -329 -43 -12
-44 -12 -53 19 -6 18 -1 23 28 33 70 23 101 98 72 173 -27 72 -113 101 -169
57 -47 -37 -58 -96 -55 -306 l3 -189 28 -3 c21 -3 27 -9 27 -28 0 -23 -3 -24
-64 -24 l-65 0 -3 249 c-3 235 -4 251 -24 278 -23 31 -84 49 -96 30 -6 -9 -10
-9 -17 2 -9 15 -38 4 -60 -23 -11 -12 -6 -18 28 -36 70 -35 111 -124 95 -205
-6 -32 -9 -35 -40 -35 -108 0 -197 103 -180 208 9 57 56 119 106 141 52 23 83
26 131 10z m806 -21 c28 -19 73 -82 73 -103 0 -3 -15 -5 -34 -5 -26 0 -36 5
-41 20 -11 35 -54 60 -102 60 -37 0 -50 -5 -73 -30 -58 -62 -45 -183 22 -211
62 -26 133 -5 156 46 14 31 69 31 64 0 -15 -95 -170 -148 -258 -89 -56 39 -72
60 -80 111 -15 101 21 177 100 214 52 25 125 19 173 -13z m644 -2 c83 -55 104
-187 42 -264 -70 -86 -189 -97 -266 -24 -16 15 -35 39 -43 54 -18 34 -18 119
0 161 41 98 174 134 267 73z m726 3 c73 -46 103 -145 69 -233 -24 -62 -90
-106 -158 -106 -56 0 -105 18 -132 48 l-18 21 -39 -31 c-50 -40 -135 -50 -192
-23 -100 47 -132 189 -63 280 23 30 72 65 91 65 14 0 3 -49 -16 -66 -37 -33
-52 -73 -47 -126 8 -75 60 -118 132 -110 45 5 87 46 82 78 -3 13 -1 26 4 29
17 10 -1 90 -26 116 -21 22 -34 79 -18 79 3 0 23 -12 44 -27 44 -32 80 -98 80
-148 0 -43 14 -79 40 -105 29 -29 110 -28 145 3 30 25 47 87 39 135 -8 40 -55
92 -83 92 -24 0 -36 21 -27 46 7 20 45 13 93 -17z m471 -4 c31 -20 72 -77 72
-100 0 -3 -15 -5 -34 -5 -26 0 -36 5 -41 20 -16 50 -103 78 -156 49 -22 -11
-63 -95 -54 -110 3 -4 18 -3 33 2 50 20 147 14 199 -12 57 -28 64 -50 31 -99
-52 -77 -162 -103 -242 -57 -58 33 -79 67 -84 137 -5 74 1 100 35 141 61 72
162 86 241 34z m393 25 c20 -6 47 -20 61 -33 31 -28 78 -92 78 -106 0 -6 5
-11 10 -11 15 0 12 -29 -5 -46 -12 -13 -15 -48 -15 -189 0 -185 0 -185 51
-185 20 0 23 -8 13 -34 -5 -12 -21 -16 -70 -16 l-64 0 0 251 0 251 -34 34
c-28 28 -41 34 -78 34 -34 0 -50 -6 -67 -24 -25 -26 -21 -46 9 -46 25 0 88
-76 96 -114 3 -17 4 -52 2 -76 -3 -44 -4 -45 -41 -48 -90 -8 -168 67 -175 167
-10 133 102 226 229 191z m-7141 -29 c0 -16 -6 -31 -15 -35 -25 -9 -55 -69
-55 -108 0 -41 12 -47 44 -23 26 20 116 20 142 0 30 -23 44 -18 44 14 0 37
-16 80 -39 106 -21 23 -33 63 -21 70 13 8 88 -53 104 -84 42 -80 22 -179 -47
-234 -48 -39 -134 -49 -192 -21 -129 61 -135 249 -11 325 41 25 46 24 46 -10z
m1710 1 c0 -15 -11 -39 -26 -55 -45 -49 -45 -142 1 -191 20 -21 33 -26 73 -26
61 0 96 25 109 77 15 58 5 108 -28 140 -28 27 -38 66 -20 77 17 11 94 -58 107
-94 27 -76 14 -152 -34 -203 -39 -42 -75 -57 -132 -57 -172 0 -245 212 -112
327 46 40 62 41 62 5z m-1302 -14 c7 -7 12 -26 12 -43 0 -41 -16 -55 -62 -55
-40 0 -58 19 -58 62 0 34 18 48 60 48 20 0 41 -5 48 -12z m2913 2 c21 -12 25
-50 9 -81 -13 -24 -72 -26 -94 -3 -50 49 20 118 85 84z m1852 -4 c21 -16 22
-59 1 -80 -35 -36 -104 -10 -104 39 0 48 61 72 103 41z m2281 -8 c20 -32 10
-77 -19 -84 -39 -10 -69 0 -84 27 -13 24 -13 29 2 53 23 35 80 37 101 4z
m-7634 -168 c0 -5 -4 -10 -10 -10 -5 0 -10 5 -10 10 0 6 5 10 10 10 6 0 10 -4
10 -10z m7998 -7 c-5 -25 -28 -28 -28 -4 0 12 6 21 16 21 9 0 14 -7 12 -17z
m-7414 -22 c25 -27 17 -72 -15 -90 -22 -12 -29 -12 -55 0 -56 27 -36 109 26
109 15 0 35 -9 44 -19z m2920 3 c37 -36 9 -97 -44 -97 -54 0 -79 55 -43 95 20
22 66 24 87 2z m1848 -1 c41 -37 4 -110 -50 -96 -73 18 -67 112 7 113 14 0 33
-7 43 -17z m2284 -8 c42 -64 -57 -127 -103 -66 -18 24 -16 48 7 71 28 28 76
26 96 -5z m306 8 c-6 -2 -10 -9 -6 -14 3 -5 -14 -9 -38 -8 l-43 1 30 13 c17 8
39 14 50 14 11 0 14 -3 7 -6z m-1 -46 c-1 -4 -3 -7 -6 -7 -40 0 -40 0 -25 10
16 10 32 9 31 -3z m-7536 -91 c15 -15 10 -26 -12 -26 -7 0 -13 9 -13 20 0 24
6 25 25 6z m-524 -108 c24 -47 24 -69 -1 -101 -40 -51 -164 -45 -189 9 -23 51
-13 79 52 157 l41 48 39 -38 c21 -21 47 -55 58 -75z m2567 88 c40 -21 62 -49
69 -90 12 -74 -34 -124 -120 -133 -46 -5 -56 -2 -84 21 -39 33 -57 76 -49 119
6 32 45 79 76 90 28 10 81 7 108 -7z m4466 -91 c-6 -16 -24 -21 -24 -7 0 11
11 22 21 22 5 0 6 -7 3 -15z m-5854 -5 c0 -5 -7 -10 -15 -10 -8 0 -15 5 -15
10 0 6 7 10 15 10 8 0 15 -4 15 -10z m2920 -34 c0 -11 -19 -15 -25 -6 -3 5 1
10 9 10 9 0 16 -2 16 -4z m1920 -62 c0 -8 -4 -14 -9 -14 -11 0 -22 26 -14 34
9 9 23 -3 23 -20z m672 -156 c-9 -9 -12 -7 -12 12 0 19 3 21 12 12 9 -9 9 -15
0 -24z m-6495 -184 c-3 -3 -12 -4 -19 -1 -8 3 -5 6 6 6 11 1 17 -2 13 -5z m17
-69 c17 -17 42 -20 51 -5 13 21 35 10 35 -17 0 -21 -3 -24 -12 -15 -7 7 -27
12 -45 12 -18 0 -33 5 -33 10 0 6 -7 10 -15 10 -8 0 -15 5 -15 10 0 15 16 12
34 -5z"/>
<path d="M3985 3281 c-91 -23 -155 -82 -181 -167 -21 -70 -21 -714 0 -714 13
0 15 54 18 358 l3 359 27 40 c32 48 79 85 127 102 113 37 251 -39 280 -155 7
-26 11 -168 11 -373 0 -292 2 -331 15 -331 14 0 16 40 13 358 -3 350 -3 358
-26 400 -49 92 -181 148 -287 123z"/>
<path d="M3954 3225 c-78 -39 -113 -107 -114 -222 0 -112 27 -113 32 0 6 145
58 207 173 207 68 0 110 -21 149 -73 20 -27 21 -41 24 -383 3 -307 5 -354 18
-354 13 0 15 44 12 353 -3 385 -3 380 -65 439 -64 61 -148 73 -229 33z"/>
<path d="M3996 3190 c-39 -12 -84 -57 -95 -95 -4 -17 -9 -180 -10 -363 -2
-293 0 -332 14 -332 13 0 15 40 15 330 0 358 3 382 54 415 33 22 109 22 142 0
51 -33 54 -57 54 -415 0 -181 4 -330 8 -330 11 0 21 321 19 542 -2 141 -4 159
-23 184 -44 59 -113 84 -178 64z"/>
<path d="M3840 2650 c0 -216 2 -250 15 -250 13 0 15 34 15 250 0 216 -2 250
-15 250 -13 0 -15 -34 -15 -250z"/>
<path d="M5280 3280 c-19 -6 -10 -8 38 -9 135 -2 220 -80 234 -215 5 -49 28
-44 28 6 -1 82 -56 163 -135 199 -48 21 -131 31 -165 19z"/>
<path d="M5194 3251 c-42 -26 -92 -89 -104 -131 -6 -19 -10 -150 -10 -290 0
-289 4 -305 79 -378 111 -108 324 -71 397 70 20 39 31 138 16 138 -7 0 -14
-12 -17 -27 -30 -145 -102 -213 -225 -213 -86 0 -152 38 -198 112 -20 32 -21
49 -23 304 -1 256 0 273 20 311 21 42 85 103 108 103 7 0 13 5 13 10 0 15 -22
12 -56 -9z"/>
<path d="M5236 3227 c-22 -12 -53 -39 -70 -60 l-31 -39 -3 -267 c-2 -220 0
-273 12 -303 67 -159 295 -161 367 -3 23 50 25 105 4 105 -11 0 -15 -11 -15
-39 0 -43 -29 -92 -73 -125 -22 -17 -43 -21 -97 -21 -76 0 -107 16 -147 75
-21 30 -23 45 -23 156 0 68 3 123 8 123 4 -1 62 -1 130 0 101 1 122 4 122 16
0 13 -21 15 -130 15 l-130 0 0 121 c0 167 25 214 129 238 102 23 194 -40 209
-144 8 -59 32 -74 32 -21 0 44 -23 102 -53 134 -59 64 -168 81 -241 39z"/>
<path d="M5285 3199 c-40 -13 -58 -28 -84 -69 -18 -30 -21 -51 -21 -142 l0
-108 120 0 c100 0 120 3 120 15 0 12 -18 15 -105 15 l-105 0 0 91 c0 130 26
168 117 169 72 0 113 -35 120 -103 4 -33 10 -47 21 -47 12 0 14 9 9 46 -11 99
-102 162 -192 133z"/>
<path d="M5180 2703 c0 -127 14 -166 72 -195 75 -39 159 -18 205 52 26 37 31
100 9 100 -9 0 -15 -16 -19 -45 -6 -54 -27 -81 -74 -94 -49 -14 -99 -2 -133
29 -29 27 -30 30 -30 129 l0 101 105 0 c87 0 105 3 105 15 0 13 -20 15 -120
15 l-120 0 0 -107z"/>
<path d="M6190 3281 c-95 -19 -169 -92 -189 -184 -7 -28 -11 -183 -11 -372 0
-282 2 -325 15 -325 13 0 15 44 15 338 0 210 4 352 11 376 6 23 29 57 57 85
74 74 157 89 248 47 61 -28 108 -83 123 -142 7 -26 11 -168 11 -373 0 -288 2
-331 15 -331 23 0 22 642 -1 719 -17 58 -68 117 -124 143 -43 20 -123 29 -170
19z"/>
<path d="M6170 3234 c-42 -18 -86 -58 -108 -99 -15 -26 -17 -77 -20 -382 -3
-312 -2 -353 12 -353 13 0 16 44 18 353 l3 352 25 37 c32 48 77 68 149 68 64
0 107 -22 145 -73 20 -27 21 -41 24 -383 3 -307 5 -354 18 -354 13 0 15 44 12
353 -3 391 -2 383 -72 445 -58 51 -139 65 -206 36z"/>
<path d="M6193 3186 c-17 -6 -41 -20 -54 -31 -46 -41 -48 -62 -49 -419 0 -294
2 -336 15 -336 13 0 15 42 15 330 0 355 3 380 51 414 14 10 43 16 74 16 31 0
60 -6 74 -16 48 -34 51 -59 51 -414 0 -213 4 -330 10 -330 12 0 11 -20 11 380
0 299 -2 326 -19 349 -43 58 -115 81 -179 57z"/>
<path d="M4432 3103 c3 -131 8 -187 20 -213 18 -42 97 -117 133 -126 14 -3 30
-14 35 -24 6 -10 10 -91 10 -179 0 -101 4 -161 10 -161 6 0 10 68 10 185 l0
184 -47 21 c-61 27 -89 53 -119 112 -22 44 -24 58 -24 213 0 145 -2 165 -16
165 -14 0 -16 -19 -12 -177z"/>
<path d="M4480 3122 c0 -151 1 -160 26 -211 29 -57 97 -111 141 -111 l23 0 0
-200 c0 -170 2 -200 15 -200 12 0 15 31 17 197 l3 197 34 8 c47 13 89 46 117
94 22 38 24 51 24 182 0 78 -4 142 -9 142 -14 0 -21 -56 -21 -173 0 -93 -3
-115 -21 -143 -68 -110 -241 -99 -298 19 -19 38 -21 61 -21 200 0 133 -2 157
-15 157 -13 0 -15 -24 -15 -158z"/>
<path d="M4532 3111 c3 -185 7 -197 72 -245 39 -30 121 -28 164 3 60 42 67 68
67 245 0 119 -3 160 -12 163 -10 4 -13 -31 -13 -151 0 -183 -9 -218 -64 -241
-69 -29 -130 -14 -167 41 -17 26 -19 48 -19 192 0 140 -2 162 -16 162 -13 0
-15 -21 -12 -169z"/>
<path d="M4860 3261 c0 -12 5 -21 10 -21 6 0 10 6 10 14 0 8 -4 18 -10 21 -5
3 -10 -3 -10 -14z"/>
<path d="M4910 3268 c-1 -7 -1 -75 0 -150 0 -76 -4 -155 -10 -176 -16 -63 -62
-117 -124 -147 l-56 -27 0 -184 c0 -157 2 -184 15 -184 13 0 15 26 15 176 l0
175 35 15 c54 22 112 80 132 132 15 39 18 77 18 211 0 123 -3 165 -12 168 -7
3 -13 -1 -13 -9z"/>
<path d="M5726 3245 c-4 -19 -6 -217 -5 -440 1 -338 4 -405 15 -405 12 0 14
71 14 434 0 398 -6 507 -24 411z"/>
<path d="M5770 2840 c0 -384 2 -440 15 -440 13 0 15 56 15 440 0 384 -2 440
-15 440 -13 0 -15 -56 -15 -440z"/>
<path d="M5827 3273 c-4 -3 -7 -201 -7 -440 0 -378 2 -433 15 -433 13 0 15 56
15 440 0 242 -4 440 -8 440 -5 0 -12 -3 -15 -7z"/>
<path d="M4010 1348 c0 -6 8 -20 17 -30 27 -30 29 -116 4 -162 -12 -21 -19
-41 -16 -44 11 -11 78 -1 102 15 54 36 56 162 2 208 -33 27 -109 36 -109 13z"/>
<path d="M3940 1284 c-16 -42 -6 -124 16 -131 27 -9 45 97 24 138 -15 26 -29
24 -40 -7z"/>
<path d="M5385 1191 c-23 -5 -29 -12 -27 -26 9 -55 113 -76 166 -34 32 25 34
55 4 63 -29 7 -103 6 -143 -3z"/>
<path d="M5775 1204 c8 -46 31 -81 57 -90 27 -8 30 -2 23 40 -9 46 -40 86 -67
86 -18 0 -19 -4 -13 -36z"/>
<path d="M7222 1343 c-30 -27 -54 -99 -46 -139 3 -19 19 -48 34 -64 23 -25 36
-30 75 -30 57 0 80 12 101 51 31 60 17 141 -30 181 -28 24 -107 24 -134 1z"/>
<path d="M8425 1193 c-29 -7 -38 -18 -31 -40 21 -65 186 -52 186 15 0 12 -9
22 -22 26 -26 7 -103 6 -133 -1z"/>
<path d="M8820 1204 c0 -49 65 -116 84 -85 9 14 -12 73 -36 98 -32 34 -48 30
-48 -13z"/>
<path d="M1831 1156 c-23 -24 -23 -24 -3 -35 22 -12 81 -15 106 -5 38 15 -1
64 -51 64 -18 0 -38 -9 -52 -24z"/>
<path d="M2183 1334 c-8 -21 13 -42 28 -27 13 13 5 43 -11 43 -6 0 -13 -7 -17
-16z"/>
<path d="M5103 1334 c-8 -21 13 -42 28 -27 13 13 5 43 -11 43 -6 0 -13 -7 -17
-16z"/>
<path d="M6953 1334 c-8 -21 13 -42 28 -27 13 13 5 43 -11 43 -6 0 -13 -7 -17
-16z"/>
<path d="M9230 1335 c-10 -12 -10 -19 -2 -27 15 -15 48 14 38 31 -10 15 -21
14 -36 -4z"/>
<path d="M2183 1134 c-8 -21 13 -42 28 -27 13 13 5 43 -11 43 -6 0 -13 -7 -17
-16z"/>
<path d="M5102 1123 c2 -10 10 -18 18 -18 8 0 16 8 18 18 2 12 -3 17 -18 17
-15 0 -20 -5 -18 -17z"/>
<path d="M6961 1141 c-15 -10 -8 -41 9 -41 15 0 25 29 14 40 -5 5 -15 5 -23 1z"/>
<path d="M9232 1137 c-14 -17 2 -42 22 -34 20 8 20 21 2 36 -10 8 -16 8 -24
-2z"/>
<path d="M1421 920 c-25 -42 -26 -54 -5 -74 18 -19 28 -20 55 -6 26 14 24 53
-5 87 l-24 27 -21 -34z"/>
<path d="M4046 953 c5 -10 8 -42 8 -70 -1 -59 12 -67 46 -33 40 40 12 120 -41
120 -17 0 -19 -4 -13 -17z"/>
<path d="M3986 934 c-10 -27 -7 -61 8 -73 16 -14 26 4 26 49 0 31 -25 48 -34
24z"/>
<path d="M5103 9873 c-35 -24 -28 -33 27 -33 54 0 62 10 28 34 -27 19 -27 19
-55 -1z"/>
</g>
</svg>
